<?xml version="1.0" encoding="UTF-8"?>
<svg xmlns="http://www.w3.org/2000/svg" version="1.1" xmlns:xlink="http://www.w3.org/1999/xlink" viewBox="0 0 169.78 205.22">
  <!-- Generator: Adobe Illustrator 29.1.0, SVG Export Plug-In . SVG Version: 2.1.0 Build 142)  -->
  <defs>
    <style>
      .st0 {
        fill: #474247;
      }

      .st0, .st1, .st2 {
        opacity: .65;
      }

      .st3 {
        fill: #aaa5a9;
      }

      .st3, .st4, .st5 {
        opacity: .26;
      }

      .st1 {
        fill: #9e764e;
      }

      .st6 {
        fill: #5a5459;
      }

      .st6, .st7, .st8 {
        opacity: .57;
      }

      .st9 {
        fill: url(#linear-gradient2);
      }

      .st10 {
        fill: url(#radial-gradient2);
      }

      .st10, .st11, .st12, .st13 {
        mix-blend-mode: screen;
      }

      .st14 {
        fill: #7d4d1d;
      }

      .st14, .st15, .st16 {
        opacity: .91;
      }

      .st17 {
        fill: #252125;
      }

      .st17, .st18, .st19 {
        opacity: .83;
      }

      .st20 {
        fill: #cfbaa4;
      }

      .st20, .st21, .st22 {
        opacity: .3;
      }

      .st23 {
        fill: #d8d4d3;
      }

      .st23, .st24, .st25 {
        opacity: .13;
      }

      .st26 {
        fill: url(#linear-gradient10);
      }

      .st27 {
        fill: #f1eae4;
      }

      .st27, .st28, .st29 {
        opacity: .09;
      }

      .st4 {
        fill: #d6c3b0;
      }

      .st30 {
        fill: #353035;
      }

      .st30, .st31, .st32 {
        opacity: .74;
      }

      .st33 {
        fill: #c0a475;
        mix-blend-mode: overlay;
      }

      .st33, .st34, .st35 {
        opacity: .5;
      }

      .st36 {
        fill: #645e63;
      }

      .st36, .st37, .st38 {
        opacity: .52;
      }

      .st39 {
        fill: url(#linear-gradient21);
      }

      .st40 {
        fill: #b69676;
      }

      .st40, .st41, .st42 {
        opacity: .48;
      }

      .st43 {
        fill: #bd9f81;
      }

      .st43, .st44, .st45 {
        opacity: .43;
      }

      .st21 {
        fill: #a8a09e;
      }

      .st46 {
        fill: #f0eff0;
      }

      .st46, .st47, .st48 {
        opacity: .04;
      }

      .st34 {
        fill: url(#radial-gradient1);
      }

      .st49 {
        fill: url(#linear-gradient1);
      }

      .st44 {
        fill: #7a7479;
      }

      .st50 {
        fill: #625652;
      }

      .st50, .st51, .st52 {
        opacity: .61;
      }

      .st53 {
        fill: #918c90;
      }

      .st53, .st54, .st55 {
        opacity: .35;
      }

      .st56 {
        fill: url(#linear-gradient9);
      }

      .st11 {
        fill: url(#linear-gradient27);
      }

      .st11, .st57 {
        opacity: .4;
      }

      .st58 {
        fill: url(#linear-gradient18);
      }

      .st51 {
        fill: #a47d57;
      }

      .st59 {
        fill: url(#linear-gradient23);
      }

      .st60 {
        fill: #504541;
      }

      .st60, .st61, .st62 {
        opacity: .7;
      }

      .st63 {
        fill: url(#linear-gradient8);
      }

      .st64 {
        fill: url(#linear-gradient11);
      }

      .st65 {
        fill: none;
      }

      .st66 {
        fill: #3f3430;
      }

      .st66, .st67, .st68 {
        opacity: .78;
      }

      .st24 {
        fill: #d2d0d2;
      }

      .st12 {
        fill: url(#linear-gradient29);
      }

      .st69 {
        fill: url(#radial-gradient);
      }

      .st28 {
        fill: #e1dfe1;
      }

      .st70 {
        fill: url(#linear-gradient16);
      }

      .st67 {
        fill: #2c282d;
      }

      .st2 {
        fill: #594e49;
      }

      .st71 {
        fill: url(#linear-gradient24);
      }

      .st72 {
        fill: #784617;
      }

      .st72, .st73, .st74 {
        opacity: .96;
      }

      .st75 {
        fill: url(#radial-gradient5);
      }

      .st75, .st57, .st76, .st77 {
        mix-blend-mode: color-dodge;
      }

      .st68 {
        fill: #8e6033;
      }

      .st29 {
        fill: #e5e2e1;
      }

      .st78 {
        fill: #fff;
        opacity: 0;
      }

      .st22 {
        fill: #9d989d;
      }

      .st5 {
        fill: #b4adab;
      }

      .st37 {
        fill: #746966;
      }

      .st79 {
        fill: #835324;
      }

      .st79, .st80, .st81 {
        opacity: .87;
      }

      .st82 {
        fill: #858084;
      }

      .st82, .st83, .st84 {
        opacity: .39;
      }

      .st38 {
        fill: #b08e6c;
      }

      .st85 {
        fill: url(#linear-gradient22);
      }

      .st86 {
        isolation: isolate;
      }

      .st18 {
        fill: #88592b;
      }

      .st83 {
        fill: #c3a88c;
      }

      .st87 {
        fill: #734110;
      }

      .st88 {
        fill: #e3d6c9;
      }

      .st88, .st89, .st90 {
        opacity: .17;
      }

      .st91 {
        fill: url(#linear-gradient19);
      }

      .st92 {
        fill: url(#linear-gradient12);
      }

      .st57 {
        fill: url(#linear-gradient26);
      }

      .st93 {
        fill: #c0bab8;
      }

      .st93, .st94, .st95 {
        opacity: .22;
      }

      .st13 {
        fill: url(#linear-gradient28);
      }

      .st96 {
        fill: url(#linear-gradient7);
      }

      .st97 {
        fill: url(#linear-gradient20);
      }

      .st98 {
        fill: url(#linear-gradient4);
      }

      .st80 {
        fill: #302621;
      }

      .st31 {
        fill: #93673c;
      }

      .st61 {
        fill: #3e393e;
      }

      .st41 {
        fill: #6e696e;
      }

      .st47 {
        fill: #f2f0f0;
      }

      .st62 {
        fill: #996e45;
      }

      .st15 {
        fill: #151216;
      }

      .st42 {
        fill: #7e7470;
      }

      .st89 {
        fill: #c4c1c4;
      }

      .st45 {
        fill: #897e7b;
      }

      .st94 {
        fill: #dcccbd;
      }

      .st99 {
        fill: url(#linear-gradient14);
      }

      .st100 {
        fill: url(#linear-gradient5);
      }

      .st84 {
        fill: #938986;
      }

      .st101, .st35 {
        mix-blend-mode: multiply;
      }

      .st102 {
        fill: #060303;
      }

      .st103 {
        fill: url(#linear-gradient3);
      }

      .st76 {
        fill: url(#radial-gradient4);
      }

      .st54 {
        fill: #9d9592;
      }

      .st104 {
        fill: url(#linear-gradient25);
      }

      .st32 {
        fill: #483c38;
      }

      .st55 {
        fill: #c9b198;
      }

      .st95 {
        fill: #b7b3b7;
      }

      .st48 {
        fill: #f8f5f2;
      }

      .st105 {
        fill: url(#linear-gradient15);
      }

      .st106 {
        fill: url(#linear-gradient17);
      }

      .st19 {
        fill: #372d29;
      }

      .st107 {
        fill: url(#linear-gradient6);
      }

      .st73 {
        fill: #201712;
      }

      .st81 {
        fill: #1d191e;
      }

      .st16 {
        fill: #281e1a;
      }

      .st77 {
        fill: url(#radial-gradient3);
      }

      .st90 {
        fill: #cbc6c5;
      }

      .st108 {
        fill: url(#linear-gradient13);
      }

      .st109 {
        fill: #19100a;
      }

      .st7 {
        fill: #6b605c;
      }

      .st110 {
        fill: url(#linear-gradient);
      }

      .st111 {
        clip-path: url(#clippath);
      }

      .st8 {
        fill: #aa8561;
      }

      .st52 {
        fill: #514b50;
      }

      .st74 {
        fill: #0d0a0d;
      }

      .st25 {
        fill: #eae0d6;
      }
    </style>
    <linearGradient id="linear-gradient" x1="85.19" y1="61.25" x2="85.19" y2="145.56" gradientUnits="userSpaceOnUse">
      <stop offset="0" stop-color="#efe494"/>
      <stop offset=".09" stop-color="#bc9532"/>
      <stop offset=".43" stop-color="#754311"/>
      <stop offset=".72" stop-color="#723f10"/>
      <stop offset="1" stop-color="#b07e24"/>
    </linearGradient>
    <linearGradient id="linear-gradient1" x1="85.19" y1="61.27" x2="85.19" y2="120.18" xlink:href="#linear-gradient"/>
    <linearGradient id="linear-gradient2" x1="84.89" y1="5.43" x2="84.89" y2="116.21" xlink:href="#linear-gradient"/>
    <linearGradient id="linear-gradient3" x1="84.89" y1="5.43" x2="84.89" y2="115.06" xlink:href="#linear-gradient"/>
    <linearGradient id="linear-gradient4" x1="84.89" y1="5.43" x2="84.89" y2="113.92" xlink:href="#linear-gradient"/>
    <linearGradient id="linear-gradient5" x1="84.89" y1="5.43" x2="84.89" y2="112.78" xlink:href="#linear-gradient"/>
    <linearGradient id="linear-gradient6" x1="84.89" y1="5.43" x2="84.89" y2="111.63" xlink:href="#linear-gradient"/>
    <linearGradient id="linear-gradient7" x1="84.89" y1="5.43" x2="84.89" y2="110.49" xlink:href="#linear-gradient"/>
    <linearGradient id="linear-gradient8" x1="84.89" y1="5.43" x2="84.89" y2="109.34" xlink:href="#linear-gradient"/>
    <linearGradient id="linear-gradient9" x1="84.89" y1="5.43" x2="84.89" y2="108.2" xlink:href="#linear-gradient"/>
    <linearGradient id="linear-gradient10" x1="84.89" y1="5.43" x2="84.89" y2="107.05" xlink:href="#linear-gradient"/>
    <linearGradient id="linear-gradient11" x1="84.89" y1="5.43" x2="84.89" y2="105.91" xlink:href="#linear-gradient"/>
    <linearGradient id="linear-gradient12" x1="84.89" y1="5.43" x2="84.89" y2="104.77" xlink:href="#linear-gradient"/>
    <linearGradient id="linear-gradient13" x1="84.89" y1="5.43" x2="84.89" y2="103.62" xlink:href="#linear-gradient"/>
    <linearGradient id="linear-gradient14" x1="84.89" y1="5.43" x2="84.89" y2="102.48" xlink:href="#linear-gradient"/>
    <linearGradient id="linear-gradient15" x1="84.89" y1="5.43" x2="84.89" y2="101.33" xlink:href="#linear-gradient"/>
    <linearGradient id="linear-gradient16" x1="84.89" y1="5.43" x2="84.89" y2="100.19" xlink:href="#linear-gradient"/>
    <linearGradient id="linear-gradient17" x1="84.89" y1="5.43" x2="84.89" y2="99.04" xlink:href="#linear-gradient"/>
    <linearGradient id="linear-gradient18" x1="84.89" y1="5.43" x2="84.89" y2="97.9" xlink:href="#linear-gradient"/>
    <linearGradient id="linear-gradient19" x1="84.89" y1="5.43" x2="84.89" y2="96.76" xlink:href="#linear-gradient"/>
    <linearGradient id="linear-gradient20" x1="84.89" y1="5.43" x2="84.89" y2="95.61" xlink:href="#linear-gradient"/>
    <linearGradient id="linear-gradient21" x1="84.89" y1="5.43" x2="84.89" y2="94.47" xlink:href="#linear-gradient"/>
    <linearGradient id="linear-gradient22" x1="84.89" y1="5.43" x2="84.89" y2="93.32" xlink:href="#linear-gradient"/>
    <linearGradient id="linear-gradient23" x1="84.89" y1="5.43" x2="84.89" y2="92.18" xlink:href="#linear-gradient"/>
    <linearGradient id="linear-gradient24" x1="84.89" y1="5.43" x2="84.89" y2="91.04" xlink:href="#linear-gradient"/>
    <linearGradient id="linear-gradient25" x1="84.89" y1="5.43" x2="84.89" y2="89.89" xlink:href="#linear-gradient"/>
    <linearGradient id="linear-gradient26" x1="84.89" y1=".4" x2="84.89" y2="95.93" gradientUnits="userSpaceOnUse">
      <stop offset="0" stop-color="#e05428"/>
      <stop offset=".09" stop-color="#c14822"/>
      <stop offset=".27" stop-color="#873318"/>
      <stop offset=".44" stop-color="#572110"/>
      <stop offset=".61" stop-color="#311309"/>
      <stop offset=".76" stop-color="#170904"/>
      <stop offset=".9" stop-color="#060302"/>
      <stop offset="1" stop-color="#010101"/>
    </linearGradient>
    <linearGradient id="linear-gradient27" x1="84.89" y1="7.21" x2="84.89" y2="35.92" gradientUnits="userSpaceOnUse">
      <stop offset="0" stop-color="#fff"/>
      <stop offset=".16" stop-color="#c1c1c1"/>
      <stop offset=".32" stop-color="#878787"/>
      <stop offset=".49" stop-color="#575757"/>
      <stop offset=".64" stop-color="#313131"/>
      <stop offset=".78" stop-color="#171717"/>
      <stop offset=".9" stop-color="#060606"/>
      <stop offset="1" stop-color="#010101"/>
    </linearGradient>
    <radialGradient id="radial-gradient" cx="60.01" cy="311.48" fx="60.01" fy="311.48" r="1.81" gradientTransform="translate(-562.07 -4981.27) scale(10.74 16.18)" gradientUnits="userSpaceOnUse">
      <stop offset=".08" stop-color="#caac90"/>
      <stop offset=".81" stop-color="#b6772e"/>
      <stop offset=".94" stop-color="#ca9e44"/>
    </radialGradient>
    <radialGradient id="radial-gradient1" cx="59.97" cy="311.4" fx="59.97" fy="311.4" r="2.11" xlink:href="#radial-gradient"/>
    <linearGradient id="linear-gradient28" x1="69.47" y1="36.96" x2="89.97" y2="72.93" gradientUnits="userSpaceOnUse">
      <stop offset=".08" stop-color="#caac90"/>
      <stop offset=".81" stop-color="#010101"/>
    </linearGradient>
    <linearGradient id="linear-gradient29" x1="94.84" y1="84.22" x2="82.99" y2="67.56" xlink:href="#linear-gradient28"/>
    <clipPath id="clippath">
      <path class="st65" d="M102.45,65.19c0,14.37-7.74,26.02-17.28,26.02s-17.28-11.65-17.28-26.02,7.74-26.02,17.28-26.02,17.28,11.65,17.28,26.02Z"/>
    </clipPath>
    <radialGradient id="radial-gradient2" cx="60.15" cy="311.79" fx="60.15" fy="311.79" r="2.66" gradientTransform="translate(-562.07 -4981.27) scale(10.74 16.18)" gradientUnits="userSpaceOnUse">
      <stop offset="0" stop-color="#b6772e"/>
      <stop offset=".35" stop-color="#6c461b"/>
      <stop offset=".65" stop-color="#32210d"/>
      <stop offset=".88" stop-color="#0e0904"/>
      <stop offset="1" stop-color="#010101"/>
    </radialGradient>
    <radialGradient id="radial-gradient3" cx="60.95" cy="311.96" fx="60.95" fy="311.96" r="1.21" gradientTransform="translate(-562.07 -4981.27) scale(10.74 16.18)" gradientUnits="userSpaceOnUse">
      <stop offset="0" stop-color="#ca9e44"/>
      <stop offset="0" stop-color="#c59a42"/>
      <stop offset=".05" stop-color="#9c7a34"/>
      <stop offset=".1" stop-color="#785e28"/>
      <stop offset=".16" stop-color="#57441d"/>
      <stop offset=".22" stop-color="#3c2f14"/>
      <stop offset=".29" stop-color="#261e0d"/>
      <stop offset=".37" stop-color="#151107"/>
      <stop offset=".47" stop-color="#090703"/>
      <stop offset=".61" stop-color="#020201"/>
      <stop offset="1" stop-color="#010101"/>
    </radialGradient>
    <radialGradient id="radial-gradient4" cx="59.58" cy="312.63" fx="59.58" fy="312.63" r="1.67" xlink:href="#radial-gradient3"/>
    <radialGradient id="radial-gradient5" cx="59.74" cy="311.02" fx="59.74" fy="311.02" r="2.14" gradientTransform="translate(-562.07 -4981.27) scale(10.74 16.18)" gradientUnits="userSpaceOnUse">
      <stop offset="0" stop-color="#ca9e44"/>
      <stop offset=".03" stop-color="#c19741"/>
      <stop offset=".22" stop-color="#876a2d"/>
      <stop offset=".41" stop-color="#57441d"/>
      <stop offset=".58" stop-color="#312711"/>
      <stop offset=".75" stop-color="#171208"/>
      <stop offset=".89" stop-color="#060502"/>
      <stop offset="1" stop-color="#010101"/>
    </radialGradient>
  </defs>
  <g class="st86">
    <g id="Camada_1">
      <g>
        <g>
          <g class="st101">
            <path class="st78" d="M91.06,195.08c-2.69,5.84-9.04,5.84-11.73,0-10.13-22.02-27.49-40.93-42.78-67.12-6.99-11.99-8.31-29.09-3.9-41.72,2.84-8.14,6.55-16.35,8.7-24.18,2.92-10.67,10.52-17.54,18.83-17.54h50.06c8.3,0,15.9,6.87,18.83,17.54,2.15,7.84,5.86,16.05,8.7,24.18,4.41,12.63,3.08,29.73-3.9,41.72-15.29,26.19-32.65,45.1-42.79,67.12Z"/>
            <path class="st47" d="M91.02,191.79c-2.67,5.68-8.99,5.68-11.66,0-10.08-21.41-27.35-39.79-42.56-65.25-6.95-11.66-8.26-28.28-3.88-40.56,2.83-7.91,6.51-15.89,8.65-23.51,2.91-10.37,10.46-17.05,18.72-17.05h49.79c8.26,0,15.82,6.68,18.72,17.05,2.14,7.62,5.82,15.6,8.65,23.51,4.38,12.28,3.07,28.9-3.88,40.56-15.21,25.46-32.48,43.84-42.56,65.25Z"/>
            <path class="st29" d="M90.99,188.51c-2.66,5.52-8.94,5.52-11.6,0-10.02-20.8-27.2-38.65-42.33-63.38-6.91-11.33-8.22-27.47-3.86-39.4,2.81-7.68,6.48-15.44,8.6-22.84,2.89-10.07,10.41-16.56,18.62-16.56h49.52c8.22,0,15.73,6.49,18.62,16.56,2.13,7.4,5.79,15.15,8.6,22.84,4.36,11.93,3.05,28.07-3.86,39.4-15.13,24.74-32.3,42.59-42.33,63.38Z"/>
            <path class="st23" d="M90.96,185.23c-2.64,5.35-8.89,5.35-11.54,0-9.97-20.18-27.05-37.51-42.1-61.51-6.88-10.99-8.18-26.66-3.84-38.24,2.79-7.46,6.44-14.98,8.56-22.16,2.88-9.77,10.35-16.07,18.52-16.07h49.26c8.17,0,15.65,6.3,18.52,16.07,2.11,7.18,5.76,14.71,8.56,22.16,4.33,11.58,3.03,27.25-3.84,38.24-15.05,24.01-32.13,41.33-42.1,61.51Z"/>
            <path class="st90" d="M90.93,181.95c-2.63,5.19-8.84,5.19-11.47,0-9.91-19.57-26.9-36.37-41.87-59.65-6.84-10.66-8.13-25.85-3.82-37.08,2.78-7.23,6.41-14.53,8.51-21.49,2.86-9.48,10.3-15.59,18.42-15.59h48.99c8.13,0,15.56,6.11,18.42,15.59,2.1,6.96,5.73,14.26,8.51,21.49,4.31,11.23,3.02,26.42-3.82,37.08-14.96,23.28-31.95,40.08-41.87,59.65Z"/>
            <path class="st93" d="M90.9,178.66c-2.62,5.03-8.8,5.03-11.41,0-9.86-18.96-26.76-35.23-41.64-57.78-6.8-10.32-8.09-25.04-3.8-35.91,2.76-7,6.37-14.07,8.46-20.82,2.85-9.18,10.24-15.1,18.32-15.1h48.72c8.08,0,15.48,5.92,18.32,15.1,2.09,6.75,5.7,13.81,8.46,20.82,4.29,10.87,3,25.59-3.8,35.91-14.88,22.55-31.78,38.82-41.64,57.78Z"/>
            <path class="st5" d="M90.87,175.38c-2.6,4.87-8.75,4.87-11.35,0-9.81-18.34-26.61-34.09-41.41-55.91-6.76-9.99-8.04-24.23-3.78-34.75,2.75-6.78,6.34-13.62,8.42-20.14,2.83-8.88,10.18-14.61,18.22-14.61h48.45c8.04,0,15.39,5.73,18.22,14.61,2.08,6.53,5.67,13.37,8.42,20.14,4.26,10.52,2.98,24.76-3.78,34.75-14.8,21.82-31.6,37.57-41.41,55.91Z"/>
            <path class="st21" d="M90.84,172.1c-2.59,4.7-8.7,4.7-11.29,0-9.75-17.73-26.46-32.95-41.18-54.04-6.73-9.66-8-23.42-3.76-33.59,2.73-6.55,6.3-13.16,8.37-19.47,2.81-8.59,10.13-14.12,18.12-14.12h48.18c7.99,0,15.3,5.53,18.12,14.12,2.07,6.31,5.64,12.92,8.37,19.47,4.24,10.17,2.97,23.94-3.76,33.59-14.72,21.09-31.43,36.31-41.18,54.04Z"/>
            <path class="st54" d="M90.8,168.82c-2.57,4.54-8.65,4.54-11.22,0-9.7-17.12-26.31-31.81-40.95-52.17-6.69-9.32-7.95-22.61-3.74-32.43,2.72-6.32,6.27-12.71,8.32-18.8,2.8-8.29,10.07-13.63,18.02-13.63h47.91c7.95,0,15.22,5.34,18.02,13.63,2.06,6.09,5.6,12.47,8.32,18.8,4.22,9.82,2.95,23.11-3.74,32.43-14.64,20.36-31.25,35.05-40.95,52.17Z"/>
            <path class="st84" d="M90.77,165.53c-2.56,4.38-8.6,4.38-11.16,0-9.64-16.5-26.17-30.67-40.72-50.3-6.65-8.99-7.91-21.8-3.72-31.27,2.7-6.1,6.23-12.25,8.28-18.12,2.78-7.99,10.01-13.15,17.92-13.15h47.65c7.9,0,15.13,5.15,17.92,13.15,2.05,5.87,5.57,12.03,8.28,18.12,4.19,9.47,2.93,22.28-3.72,31.27-14.55,19.63-31.08,33.8-40.72,50.3Z"/>
            <path class="st45" d="M90.74,162.25c-2.54,4.22-8.55,4.22-11.1,0-9.59-15.89-26.02-29.53-40.49-48.43-6.61-8.65-7.86-20.99-3.7-30.11,2.69-5.87,6.2-11.8,8.23-17.45,2.77-7.7,9.96-12.66,17.82-12.66h47.38c7.86,0,15.05,4.96,17.82,12.66,2.03,5.65,5.54,11.58,8.23,17.45,4.17,9.12,2.92,21.45-3.69,30.11-14.47,18.9-30.9,32.54-40.49,48.43Z"/>
            <path class="st42" d="M90.71,158.97c-2.53,4.05-8.51,4.05-11.03,0-9.53-15.28-25.87-28.39-40.26-46.57-6.58-8.32-7.82-20.18-3.67-28.95,2.67-5.65,6.16-11.34,8.18-16.78,2.75-7.4,9.9-12.17,17.72-12.17h47.11c7.81,0,14.96,4.77,17.72,12.17,2.02,5.44,5.51,11.13,8.18,16.78,4.14,8.76,2.9,20.62-3.67,28.95-14.39,18.17-30.73,31.29-40.26,46.57Z"/>
            <path class="st37" d="M90.68,155.69c-2.51,3.89-8.46,3.89-10.97,0-9.48-14.66-25.72-27.25-40.03-44.7-6.54-7.99-7.77-19.37-3.65-27.78,2.66-5.42,6.13-10.89,8.14-16.1,2.74-7.1,9.84-11.68,17.61-11.68h46.84c7.77,0,14.88,4.58,17.61,11.68,2.01,5.22,5.48,10.68,8.14,16.1,4.12,8.41,2.88,19.8-3.65,27.78-14.31,17.44-30.55,30.03-40.03,44.7Z"/>
            <path class="st7" d="M90.65,152.4c-2.5,3.73-8.41,3.73-10.91,0-9.43-14.05-25.58-26.11-39.8-42.83-6.5-7.65-7.73-18.56-3.63-26.62,2.64-5.19,6.09-10.43,8.09-15.43,2.72-6.81,9.79-11.19,17.51-11.19h46.57c7.73,0,14.79,4.39,17.51,11.19,2,5,5.45,10.24,8.09,15.43,4.1,8.06,2.87,18.97-3.63,26.62-14.23,16.71-30.38,28.78-39.8,42.83Z"/>
            <path class="st50" d="M90.62,149.12c-2.49,3.57-8.36,3.57-10.85,0-9.37-13.44-25.43-24.98-39.57-40.96-6.46-7.32-7.69-17.75-3.61-25.46,2.63-4.97,6.06-9.98,8.04-14.76,2.7-6.51,9.73-10.7,17.41-10.7h46.3c7.68,0,14.71,4.2,17.41,10.7,1.99,4.78,5.42,9.79,8.04,14.76,4.07,7.71,2.85,18.14-3.61,25.46-14.14,15.99-30.2,27.52-39.57,40.96Z"/>
            <path class="st2" d="M90.58,145.84c-2.47,3.4-8.31,3.4-10.78,0-9.32-12.83-25.28-23.84-39.34-39.09-6.43-6.99-7.64-16.94-3.59-24.3,2.61-4.74,6.02-9.52,8-14.08,2.69-6.21,9.67-10.22,17.31-10.22h46.03c7.64,0,14.62,4,17.31,10.22,1.98,4.56,5.38,9.34,8,14.08,4.05,7.36,2.84,17.31-3.59,24.3-14.06,15.26-30.03,26.27-39.34,39.09Z"/>
            <path class="st60" d="M90.55,142.56c-2.46,3.24-8.26,3.24-10.72,0-9.26-12.21-25.13-22.7-39.11-37.22-6.39-6.65-7.6-16.13-3.57-23.14,2.6-4.51,5.99-9.07,7.95-13.41,2.67-5.91,9.62-9.73,17.21-9.73h45.77c7.59,0,14.54,3.81,17.21,9.73,1.96,4.35,5.35,8.9,7.95,13.41,4.03,7.01,2.82,16.49-3.57,23.14-13.98,14.53-29.85,25.01-39.11,37.22Z"/>
            <path class="st32" d="M90.52,139.27c-2.44,3.08-8.21,3.08-10.66,0-9.21-11.6-24.99-21.56-38.88-35.36-6.35-6.32-7.55-15.32-3.55-21.98,2.58-4.29,5.95-8.61,7.9-12.74,2.66-5.62,9.56-9.24,17.11-9.24h45.5c7.55,0,14.45,3.62,17.11,9.24,1.95,4.13,5.32,8.45,7.9,12.74,4,6.65,2.8,15.66-3.55,21.98-13.9,13.8-29.68,23.76-38.89,35.36Z"/>
            <path class="st66" d="M90.49,135.99c-2.43,2.91-8.17,2.91-10.59,0-9.15-10.99-24.84-20.42-38.66-33.49-6.31-5.98-7.51-14.51-3.53-20.82,2.57-4.06,5.92-8.16,7.86-12.06,2.64-5.32,9.51-8.75,17.01-8.75h45.23c7.5,0,14.37,3.43,17.01,8.75,1.94,3.91,5.29,8,7.86,12.06,3.98,6.3,2.79,14.83-3.53,20.82-13.82,13.07-29.5,22.5-38.66,33.49Z"/>
            <path class="st19" d="M90.46,132.71c-2.41,2.75-8.12,2.75-10.53,0-9.1-10.37-24.69-19.28-38.43-31.62-6.28-5.65-7.46-13.7-3.51-19.65,2.55-3.83,5.88-7.7,7.81-11.39,2.63-5.02,9.45-8.26,16.91-8.26h44.96c7.46,0,14.28,3.24,16.91,8.26,1.93,3.69,5.26,7.56,7.81,11.39,3.96,5.95,2.77,14-3.51,19.65-13.73,12.34-29.33,21.25-38.43,31.62Z"/>
            <path class="st80" d="M90.43,129.43c-2.4,2.59-8.07,2.59-10.47,0-9.05-9.76-24.54-18.14-38.2-29.75-6.24-5.32-7.42-12.89-3.49-18.49,2.54-3.61,5.84-7.25,7.76-10.72,2.61-4.73,9.39-7.77,16.81-7.77h44.69c7.41,0,14.2,3.05,16.81,7.77,1.92,3.47,5.23,7.11,7.76,10.72,3.93,5.6,2.75,13.18-3.49,18.49-13.65,11.61-29.15,19.99-38.2,29.75Z"/>
            <path class="st16" d="M90.4,126.14c-2.39,2.43-8.02,2.43-10.41,0-8.99-9.15-24.4-17-37.97-27.88-6.2-4.98-7.37-12.08-3.47-17.33,2.52-3.38,5.81-6.79,7.72-10.05,2.6-4.43,9.34-7.29,16.71-7.29h44.42c7.37,0,14.11,2.86,16.71,7.29,1.91,3.26,5.2,6.66,7.72,10.05,3.91,5.25,2.74,12.35-3.46,17.33-13.57,10.88-28.98,18.73-37.97,27.88Z"/>
            <path class="st73" d="M90.36,122.86c-2.37,2.26-7.97,2.26-10.34,0-8.94-8.53-24.25-15.86-37.74-26.01-6.16-4.65-7.33-11.27-3.44-16.17,2.51-3.15,5.77-6.34,7.67-9.37,2.58-4.13,9.28-6.8,16.6-6.8h44.16c7.32,0,14.03,2.66,16.6,6.8,1.9,3.04,5.16,6.22,7.67,9.37,3.88,4.9,2.72,11.52-3.44,16.17-13.49,10.15-28.8,17.48-37.74,26.01Z"/>
            <path class="st109" d="M90.33,119.58c-2.36,2.1-7.92,2.1-10.28,0-8.88-7.92-24.1-14.72-37.51-24.14-6.13-4.31-7.28-10.46-3.42-15.01,2.49-2.93,5.74-5.88,7.62-8.7,2.56-3.84,9.22-6.31,16.5-6.31h43.89c7.28,0,13.94,2.47,16.5,6.31,1.88,2.82,5.13,5.77,7.62,8.7,3.86,4.54,2.7,10.69-3.42,15.01-13.41,9.42-28.63,16.22-37.51,24.14Z"/>
          </g>
          <path class="st110" d="M85.19,129.98c-7.65-12.22-29.73-20.94-48.65-34.24-6.99-4.92-8.31-11.94-3.9-17.12,3.3-3.88,7.77-7.8,9.61-11.47,1.65-3.29,6.74-5.65,12.82-5.65h60.26c6.07,0,11.17,2.36,12.82,5.65,1.84,3.67,6.3,7.59,9.6,11.47,4.41,5.18,3.08,12.2-3.9,17.12-18.92,13.3-41,22.02-48.65,34.24Z"/>
          <path class="st49" d="M85.19,124.26c-5.74-11.2-22.3-19.2-36.5-31.38-5.24-4.51-6.23-10.94-2.93-15.69,2.47-3.56,5.83-7.15,7.21-10.51,1.24-3.02,5.06-5.18,9.62-5.18h45.21c4.56,0,8.38,2.16,9.61,5.18,1.38,3.37,4.73,6.96,7.21,10.51,3.3,4.75,2.31,11.18-2.93,15.69-14.19,12.19-30.76,20.18-36.5,31.38Z"/>
          <path class="st33" d="M85.19,129.98c-7.65-12.22-29.73-20.94-48.65-34.24-6.99-4.92-8.31-11.94-3.9-17.12,3.3-3.88,7.77-7.8,9.61-11.47,1.65-3.29,6.74-5.65,12.82-5.65h60.26c6.07,0,11.17,2.36,12.82,5.65,1.84,3.67,6.3,7.59,9.6,11.47,4.41,5.18,3.08,12.2-3.9,17.12-18.92,13.3-41,22.02-48.65,34.24Z"/>
        </g>
        <g>
          <g class="st35">
            <path class="st78" d="M15.24,7.09c7.8,1.11,9.49,3.51,10.12,5.29,4.13,11.49,14.5,23.74,16.26,38.43,1.22,10.29,1.37,28.38,1.23,44.34-.13,14.55,17.37,26.76,40.51,26.76h.83c.24,0,.46-.05.7-.05.24,0,.46.05.7.05h.83c23.14,0,40.64-12.2,40.51-26.76-.14-15.96,0-34.05,1.23-44.34,1.76-14.68,12.13-26.93,16.26-38.43.64-1.78,2.32-4.18,10.12-5.29-.7-1.76-138.6-1.76-139.29,0Z"/>
            <path class="st48" d="M15.26,7.1c7.82,1.13,9.53,3.55,10.2,5.34,4.26,11.56,14.7,23.8,16.55,38.41,1.28,10.19,1.52,28.04,1.46,43.72-.07,14.26,17.18,26.19,39.91,26.19h.81c.24,0,.46-.04.69-.05.23,0,.45.05.69.05h.81c22.74,0,39.98-11.93,39.91-26.19-.06-15.69.18-33.53,1.46-43.72,1.85-14.6,12.29-26.85,16.55-38.41.66-1.8,2.38-4.22,10.2-5.34-.67-1.78-138.58-1.78-139.25,0Z"/>
            <path class="st27" d="M15.29,7.12c7.83,1.14,9.58,3.58,10.27,5.4,4.39,11.62,14.89,23.86,16.84,38.39,1.33,10.09,1.68,27.7,1.69,43.1,0,13.97,16.99,25.62,39.32,25.62h.8c.23,0,.45-.04.68-.05.23,0,.45.05.68.05h.8c22.33,0,39.32-11.66,39.32-25.62.02-15.41.36-33.01,1.69-43.1,1.95-14.52,12.45-26.77,16.84-38.39.69-1.81,2.43-4.26,10.27-5.4-.64-1.81-138.57-1.81-139.2,0Z"/>
            <path class="st25" d="M15.31,7.13c7.85,1.15,9.63,3.62,10.34,5.45,4.52,11.68,15.09,23.93,17.13,38.37,1.38,9.99,1.83,27.35,1.93,42.48.06,13.67,16.8,25.05,38.73,25.05h.79c.23,0,.44-.04.67-.04.23,0,.44.04.66.04h.79c21.93,0,38.66-11.38,38.73-25.05.1-15.13.54-32.49,1.93-42.48,2.05-14.44,12.61-26.69,17.13-38.37.71-1.83,2.49-4.3,10.34-5.45-.61-1.83-138.55-1.83-139.16,0Z"/>
            <path class="st88" d="M15.33,7.15c7.86,1.16,9.68,3.66,10.41,5.5,4.65,11.74,15.28,23.99,17.43,38.35,1.44,9.9,1.98,27.01,2.16,41.86.13,13.38,16.61,24.49,38.14,24.49h.77c.22,0,.43-.04.65-.04.22,0,.43.04.65.04h.77c21.53,0,38.01-11.11,38.14-24.49.18-14.85.72-31.97,2.16-41.86,2.14-14.36,12.77-26.6,17.43-38.35.73-1.84,2.55-4.34,10.41-5.5-.58-1.85-138.53-1.85-139.11,0Z"/>
            <path class="st94" d="M15.36,7.17c7.88,1.18,9.72,3.7,10.48,5.56,4.79,11.81,15.48,24.05,17.72,38.33,1.49,9.8,2.14,26.67,2.39,41.24.19,13.08,16.42,23.92,37.54,23.92h.76c.22,0,.42-.04.64-.04.22,0,.42.04.64.04h.76c21.13,0,37.35-10.84,37.54-23.92.25-14.58.9-31.45,2.39-41.24,2.24-14.28,12.93-26.52,17.72-38.33.76-1.86,2.61-4.38,10.48-5.56-.55-1.87-138.52-1.87-139.07,0Z"/>
            <path class="st4" d="M15.38,7.18c7.89,1.19,9.77,3.73,10.55,5.61,4.92,11.87,15.68,24.11,18.01,38.31,1.55,9.7,2.29,26.32,2.63,40.62.26,12.79,16.23,23.35,36.95,23.35h.74c.21,0,.41-.04.63-.04.21,0,.41.04.63.04h.74c20.73,0,36.69-10.56,36.95-23.35.33-14.3,1.08-30.92,2.63-40.62,2.33-14.2,13.09-26.44,18.01-38.31.78-1.88,2.66-4.42,10.55-5.61-.52-1.89-138.5-1.89-139.02,0Z"/>
            <path class="st20" d="M15.4,7.2c7.9,1.2,9.82,3.77,10.63,5.67,5.05,11.93,15.87,24.17,18.3,38.29,1.6,9.6,2.45,25.98,2.86,40,.33,12.49,16.03,22.78,36.36,22.78h.73c.21,0,.41-.04.62-.04.21,0,.41.04.62.04h.73c20.32,0,36.03-10.29,36.36-22.78.41-14.02,1.26-30.4,2.86-40,2.43-14.12,13.25-26.36,18.3-38.29.81-1.89,2.72-4.46,10.63-5.67-.49-1.92-138.49-1.92-138.98,0Z"/>
            <path class="st55" d="M15.42,7.22c7.92,1.22,9.87,3.81,10.7,5.72,5.18,12,16.07,24.23,18.59,38.27,1.65,9.5,2.6,25.64,3.09,39.38.39,12.2,15.84,22.22,35.76,22.22h.71c.21,0,.4-.04.6-.04.21,0,.4.04.6.04h.71c19.92,0,35.37-10.02,35.77-22.22.49-13.74,1.44-29.88,3.09-39.38,2.52-14.04,13.41-26.27,18.59-38.27.83-1.91,2.78-4.5,10.7-5.72-.46-1.94-138.47-1.94-138.93,0Z"/>
            <path class="st83" d="M15.45,7.23c7.93,1.23,9.92,3.85,10.77,5.77,5.31,12.06,16.26,24.29,18.88,38.25,1.71,9.4,2.75,25.29,3.33,38.76.46,11.9,15.65,21.65,35.17,21.65h.7c.2,0,.39-.04.59-.04.2,0,.39.04.59.04h.7c19.52,0,34.72-9.74,35.17-21.65.57-13.47,1.62-29.36,3.33-38.76,2.62-13.96,13.57-26.19,18.88-38.25.85-1.93,2.84-4.55,10.77-5.77-.43-1.96-138.46-1.96-138.88,0Z"/>
            <path class="st43" d="M15.47,7.25c7.95,1.24,9.96,3.89,10.84,5.83,5.45,12.12,16.46,24.35,19.17,38.23,1.76,9.3,2.91,24.95,3.56,38.14.52,11.61,15.46,21.08,34.58,21.08h.69c.2,0,.38-.03.58-.04.2,0,.38.04.58.04h.68c19.12,0,34.06-9.47,34.58-21.08.65-13.19,1.8-28.84,3.56-38.14,2.72-13.88,13.73-26.11,19.17-38.23.88-1.94,2.89-4.59,10.84-5.83-.39-1.98-138.44-1.98-138.84,0Z"/>
            <path class="st40" d="M15.49,7.26c7.96,1.25,10.01,3.92,10.91,5.88,5.58,12.19,16.65,24.41,19.47,38.21,1.82,9.2,3.06,24.61,3.79,37.52.59,11.31,15.27,20.51,33.99,20.51h.67c.19,0,.37-.03.57-.04.19,0,.37.04.57.04h.67c18.71,0,33.4-9.2,33.99-20.51.73-12.91,1.98-28.32,3.79-37.52,2.81-13.8,13.89-26.02,19.47-38.21.9-1.96,2.95-4.63,10.91-5.88-.36-2-138.43-2-138.79,0Z"/>
            <path class="st38" d="M15.52,7.28c7.98,1.27,10.06,3.96,10.99,5.93,5.71,12.25,16.85,24.48,19.76,38.19,1.87,9.1,3.21,24.26,4.03,36.9.65,11.02,15.08,19.95,33.39,19.95h.66c.19,0,.37-.03.56-.03.19,0,.37.03.55.03h.66c18.31,0,32.74-8.93,33.39-19.95.81-12.64,2.15-27.79,4.03-36.9,2.91-13.72,14.05-25.94,19.76-38.19.93-1.97,3.01-4.67,10.99-5.93-.33-2.02-138.41-2.02-138.75,0Z"/>
            <path class="st8" d="M15.54,7.3c7.99,1.28,10.11,4,11.06,5.99,5.84,12.31,17.04,24.54,20.05,38.17,1.93,9,3.37,23.92,4.26,36.28.72,10.73,14.89,19.38,32.8,19.38h.64c.19,0,.36-.03.54-.03.18,0,.36.03.54.03h.64c17.91,0,32.08-8.65,32.8-19.38.89-12.36,2.33-27.27,4.26-36.28,3-13.64,14.21-25.86,20.05-38.17.95-1.99,3.07-4.71,11.06-5.99-.3-2.05-138.4-2.05-138.7,0Z"/>
            <path class="st51" d="M15.56,7.31c8,1.29,10.15,4.04,11.13,6.04,5.97,12.38,17.24,24.6,20.34,38.15,1.98,8.9,3.52,23.58,4.49,35.66.78,10.43,14.7,18.81,32.21,18.81h.63c.18,0,.35-.03.53-.03.18,0,.35.03.53.03h.63c17.51,0,31.43-8.38,32.21-18.81.97-12.08,2.51-26.75,4.49-35.66,3.1-13.56,14.37-25.78,20.34-38.15.97-2.01,3.12-4.75,11.13-6.04-.27-2.07-138.38-2.07-138.66,0Z"/>
            <path class="st1" d="M15.58,7.33c8.02,1.3,10.2,4.07,11.2,6.1,6.11,12.44,17.44,24.66,20.63,38.13,2.03,8.81,3.67,23.23,4.73,35.04.85,10.14,14.51,18.24,31.61,18.24h.61c.18,0,.34-.03.52-.03.18,0,.34.03.52.03h.61c17.11,0,30.77-8.11,31.62-18.24,1.05-11.8,2.69-26.23,4.73-35.04,3.2-13.47,14.53-25.69,20.63-38.13,1-2.02,3.18-4.79,11.2-6.1-.24-2.09-138.37-2.09-138.61,0Z"/>
            <path class="st62" d="M15.61,7.35c8.03,1.32,10.25,4.11,11.27,6.15,6.24,12.5,17.63,24.72,20.92,38.11,2.09,8.71,3.83,22.89,4.96,34.42.91,9.84,14.32,17.68,31.02,17.68h.6c.17,0,.33-.03.51-.03.17,0,.33.03.51.03h.6c16.7,0,30.11-7.83,31.02-17.68,1.13-11.53,2.87-25.71,4.96-34.42,3.29-13.39,14.69-25.61,20.92-38.11,1.02-2.04,3.24-4.83,11.27-6.15-.21-2.11-138.35-2.11-138.56,0Z"/>
            <path class="st31" d="M15.63,7.36c8.05,1.33,10.3,4.15,11.34,6.2,6.37,12.57,17.83,24.78,21.22,38.09,2.14,8.61,3.98,22.55,5.19,33.79.98,9.55,14.13,17.11,30.43,17.11h.58c.17,0,.33-.03.49-.03.17,0,.33.03.49.03h.58c16.3,0,29.45-7.56,30.43-17.11,1.21-11.25,3.05-25.19,5.19-33.79,3.39-13.31,14.85-25.53,21.22-38.09,1.05-2.06,3.3-4.87,11.34-6.2-.18-2.13-138.34-2.13-138.52,0Z"/>
            <path class="st68" d="M15.65,7.38c8.06,1.34,10.35,4.19,11.42,6.26,6.5,12.63,18.02,24.84,21.51,38.07,2.2,8.51,4.13,22.2,5.43,33.17,1.04,9.25,13.94,16.54,29.84,16.54h.57c.16,0,.32-.03.48-.03.16,0,.32.03.48.03h.57c15.9,0,28.79-7.29,29.84-16.54,1.29-10.97,3.23-24.67,5.43-33.17,3.48-13.23,15.01-25.44,21.51-38.07,1.07-2.07,3.35-4.92,11.42-6.26-.15-2.15-138.32-2.15-138.47,0Z"/>
            <path class="st18" d="M15.68,7.39c8.08,1.36,10.39,4.22,11.49,6.31,6.63,12.69,18.22,24.9,21.8,38.05,2.25,8.41,4.29,21.86,5.66,32.55,1.11,8.96,13.75,15.97,29.24,15.97h.56c.16,0,.31-.03.47-.03.16,0,.31.03.47.03h.55c15.5,0,28.13-7.01,29.24-15.97,1.37-10.69,3.41-24.14,5.66-32.55,3.58-13.15,15.16-25.36,21.8-38.05,1.09-2.09,3.41-4.96,11.49-6.31-.12-2.18-138.31-2.18-138.43,0Z"/>
            <path class="st79" d="M15.7,7.41c8.09,1.37,10.44,4.26,11.56,6.37,6.77,12.76,18.41,24.96,22.09,38.04,2.3,8.31,4.44,21.52,5.89,31.93,1.18,8.66,13.56,15.41,28.65,15.41h.54c.16,0,.3-.02.46-.03.16,0,.3.03.46.03h.54c15.09,0,27.48-6.74,28.65-15.41,1.45-10.42,3.59-23.62,5.89-31.93,3.68-13.07,15.32-25.28,22.09-38.04,1.12-2.1,3.47-5,11.56-6.37-.09-2.2-138.29-2.2-138.38,0Z"/>
            <path class="st14" d="M15.72,7.43c8.1,1.38,10.49,4.3,11.63,6.42,6.9,12.82,18.61,25.02,22.38,38.02,2.36,8.21,4.59,21.17,6.12,31.31,1.24,8.37,13.37,14.84,28.06,14.84h.53c.15,0,.29-.02.45-.02.15,0,.29.02.45.02h.53c14.69,0,26.82-6.47,28.06-14.84,1.53-10.14,3.77-23.1,6.12-31.31,3.77-12.99,15.48-25.2,22.38-38.02,1.14-2.12,3.53-5.04,11.63-6.42-.06-2.22-138.28-2.22-138.34,0Z"/>
            <path class="st72" d="M15.74,7.44c8.12,1.39,10.54,4.34,11.7,6.47,7.03,12.88,18.81,25.09,22.67,38,2.41,8.11,4.75,20.83,6.36,30.69,1.31,8.08,13.18,14.27,27.47,14.27h.51c.15,0,.29-.02.43-.02.15,0,.29.02.43.02h.51c14.29,0,26.16-6.2,27.47-14.27,1.61-9.86,3.95-22.58,6.36-30.69,3.87-12.91,15.64-25.11,22.67-38,1.17-2.14,3.58-5.08,11.7-6.47-.03-2.24-138.26-2.24-138.29,0Z"/>
            <path class="st87" d="M15.77,7.46c8.13,1.41,10.58,4.37,11.77,6.53,7.16,12.95,19,25.15,22.97,37.98,2.47,8.01,4.9,20.49,6.59,30.07,1.37,7.78,12.99,13.7,26.87,13.7h.5c.14,0,.28-.02.42-.02.14,0,.28.02.42.02h.5c13.89,0,25.5-5.92,26.87-13.7,1.69-9.58,4.12-22.06,6.59-30.07,3.96-12.83,15.8-25.03,22.97-37.98,1.19-2.15,3.64-5.12,11.77-6.53,0-2.26-138.24-2.26-138.24,0Z"/>
          </g>
          <g>
            <path class="st9" d="M15.77,7.46c8.13,1.41,10.58,4.37,11.77,6.53,7.16,12.95,19,25.15,22.97,37.98,2.47,8.01,4.9,20.49,6.59,30.07,1.37,7.78,12.99,13.7,26.87,13.7h.5c.14,0,.28-.02.42-.02.14,0,.28.02.42.02h.5c13.89,0,25.5-5.92,26.87-13.7,1.69-9.58,4.12-22.06,6.59-30.07,3.96-12.83,15.8-25.03,22.97-37.98,1.19-2.15,3.64-5.12,11.77-6.53,0-2.26-138.24-2.26-138.24,0Z"/>
            <path class="st103" d="M16.76,7.46c8.02,1.41,10.43,4.37,11.61,6.53,7.06,12.95,18.73,25.15,22.63,37.98,2.43,8.01,4.83,20.49,6.5,30.07,1.35,7.78,12.8,13.7,26.49,13.7h.49c.14,0,.27-.02.42-.02.14,0,.27.02.41.02h.49c13.69,0,25.14-5.92,26.49-13.7,1.66-9.58,4.06-22.06,6.5-30.07,3.91-12.83,15.58-25.03,22.63-37.98,1.17-2.15,3.59-5.12,11.61-6.53,0-2.26-136.26-2.26-136.26,0Z"/>
            <path class="st98" d="M17.76,7.46c7.9,1.41,10.28,4.37,11.44,6.53,6.95,12.95,18.45,25.15,22.3,37.98,2.4,8.01,4.76,20.49,6.4,30.07,1.33,7.78,12.61,13.7,26.1,13.7h.48c.14,0,.27-.02.41-.02.14,0,.27.02.41.02h.48c13.49,0,24.77-5.92,26.1-13.7,1.64-9.58,4.01-22.06,6.4-30.07,3.85-12.83,15.35-25.03,22.3-37.98,1.16-2.15,3.54-5.12,11.44-6.53,0-2.26-134.27-2.26-134.27,0Z"/>
            <path class="st100" d="M18.75,7.46c7.78,1.41,10.13,4.37,11.27,6.53,6.85,12.95,18.18,25.15,21.97,37.98,2.36,8.01,4.69,20.49,6.31,30.07,1.31,7.78,12.42,13.7,25.71,13.7h.48c.14,0,.27-.02.4-.02.14,0,.27.02.4.02h.48c13.29,0,24.4-5.92,25.71-13.7,1.62-9.58,3.95-22.06,6.31-30.07,3.79-12.83,15.12-25.03,21.97-37.98,1.14-2.15,3.49-5.12,11.27-6.53,0-2.26-132.28-2.26-132.28,0Z"/>
            <path class="st107" d="M19.74,7.46c7.66,1.41,9.98,4.37,11.1,6.53,6.75,12.95,17.91,25.15,21.64,37.98,2.33,8.01,4.62,20.49,6.21,30.07,1.29,7.78,12.24,13.7,25.33,13.7h.47c.14,0,.26-.02.4-.02.13,0,.26.02.4.02h.47c13.09,0,24.03-5.92,25.33-13.7,1.59-9.58,3.89-22.06,6.21-30.07,3.74-12.83,14.89-25.03,21.64-37.98,1.12-2.15,3.43-5.12,11.1-6.53,0-2.26-130.29-2.26-130.29,0Z"/>
            <path class="st96" d="M20.74,7.46c7.55,1.41,9.82,4.37,10.93,6.53,6.65,12.95,17.63,25.15,21.31,37.98,2.29,8.01,4.55,20.49,6.12,30.07,1.27,7.78,12.05,13.7,24.94,13.7h.46c.13,0,.26-.02.39-.02.13,0,.26.02.39.02h.46c12.89,0,23.67-5.92,24.94-13.7,1.57-9.58,3.83-22.06,6.12-30.07,3.68-12.83,14.67-25.03,21.31-37.98,1.1-2.15,3.38-5.12,10.93-6.53,0-2.26-128.3-2.26-128.3,0Z"/>
            <path class="st63" d="M21.73,7.46c7.43,1.41,9.67,4.37,10.76,6.53,6.54,12.95,17.36,25.15,20.98,37.98,2.25,8.01,4.48,20.49,6.02,30.07,1.25,7.78,11.86,13.7,24.55,13.7h.46c.13,0,.25-.02.38-.02.13,0,.25.02.38.02h.45c12.69,0,23.3-5.92,24.55-13.7,1.54-9.58,3.77-22.06,6.02-30.07,3.62-12.83,14.44-25.03,20.98-37.98,1.09-2.15,3.33-5.12,10.76-6.53,0-2.26-126.31-2.26-126.31,0Z"/>
            <path class="st56" d="M22.73,7.46c7.31,1.41,9.52,4.37,10.59,6.53,6.44,12.95,17.09,25.15,20.65,37.98,2.22,8.01,4.41,20.49,5.93,30.07,1.23,7.78,11.68,13.7,24.17,13.7h.45c.13,0,.25-.02.38-.02.13,0,.25.02.38.02h.45c12.49,0,22.93-5.92,24.17-13.7,1.52-9.58,3.71-22.06,5.93-30.07,3.56-12.83,14.21-25.03,20.65-37.98,1.07-2.15,3.28-5.12,10.59-6.53,0-2.26-124.32-2.26-124.32,0Z"/>
            <path class="st26" d="M23.72,7.46c7.2,1.41,9.37,4.37,10.42,6.53,6.34,12.95,16.81,25.15,20.32,37.98,2.18,8.01,4.34,20.49,5.83,30.07,1.21,7.78,11.49,13.7,23.78,13.7h.44c.13,0,.25-.02.37-.02.13,0,.25.02.37.02h.44c12.29,0,22.57-5.92,23.78-13.7,1.49-9.58,3.65-22.06,5.83-30.07,3.51-12.83,13.98-25.03,20.32-37.98,1.05-2.15,3.22-5.12,10.42-6.53,0-2.26-122.33-2.26-122.33,0Z"/>
            <path class="st64" d="M24.72,7.46c7.08,1.41,9.21,4.37,10.25,6.53,6.23,12.95,16.54,25.15,19.99,37.98,2.15,8.01,4.27,20.49,5.74,30.07,1.19,7.78,11.3,13.7,23.39,13.7h.43c.12,0,.24-.02.37-.02.12,0,.24.02.37.02h.43c12.09,0,22.2-5.92,23.39-13.7,1.47-9.58,3.59-22.06,5.74-30.07,3.45-12.83,13.76-25.03,19.99-37.98,1.04-2.15,3.17-5.12,10.25-6.53,0-2.26-120.35-2.26-120.35,0Z"/>
            <path class="st92" d="M25.71,7.46c6.96,1.41,9.06,4.37,10.08,6.53,6.13,12.95,16.27,25.15,19.66,37.98,2.11,8.01,4.2,20.49,5.64,30.07,1.17,7.78,11.12,13.7,23.01,13.7h.43c.12,0,.24-.02.36-.02.12,0,.24.02.36.02h.43c11.89,0,21.83-5.92,23.01-13.7,1.45-9.58,3.53-22.06,5.64-30.07,3.39-12.83,13.53-25.03,19.66-37.98,1.02-2.15,3.12-5.12,10.08-6.53,0-2.26-118.36-2.26-118.36,0Z"/>
            <path class="st108" d="M26.7,7.46c6.85,1.41,8.91,4.37,9.91,6.53,6.03,12.95,15.99,25.15,19.33,37.98,2.08,8.01,4.13,20.49,5.55,30.07,1.15,7.78,10.93,13.7,22.62,13.7h.42c.12,0,.23-.02.35-.02.12,0,.23.02.35.02h.42c11.69,0,21.47-5.92,22.62-13.7,1.42-9.58,3.47-22.06,5.55-30.07,3.34-12.83,13.3-25.03,19.33-37.98,1-2.15,3.07-5.12,9.91-6.53,0-2.26-116.37-2.26-116.37,0Z"/>
            <path class="st99" d="M27.7,7.46c6.73,1.41,8.76,4.37,9.74,6.53,5.92,12.95,15.72,25.15,19,37.98,2.04,8.01,4.06,20.49,5.45,30.07,1.13,7.78,10.74,13.7,22.23,13.7h.41c.12,0,.23-.02.35-.02.12,0,.23.02.35.02h.41c11.49,0,21.1-5.92,22.23-13.7,1.4-9.58,3.41-22.06,5.45-30.07,3.28-12.83,13.08-25.03,19-37.98.98-2.15,3.01-5.12,9.74-6.53,0-2.26-114.38-2.26-114.38,0Z"/>
            <path class="st105" d="M28.69,7.46c6.61,1.41,8.61,4.37,9.57,6.53,5.82,12.95,15.45,25.15,18.67,37.98,2.01,8.01,3.99,20.49,5.36,30.07,1.12,7.78,10.56,13.7,21.85,13.7h.4c.12,0,.23-.02.34-.02.12,0,.23.02.34.02h.4c11.29,0,20.73-5.92,21.85-13.7,1.37-9.58,3.35-22.06,5.36-30.07,3.22-12.83,12.85-25.03,18.67-37.98.97-2.15,2.96-5.12,9.57-6.53,0-2.26-112.39-2.26-112.39,0Z"/>
            <path class="st70" d="M29.69,7.46c6.49,1.41,8.45,4.37,9.4,6.53,5.72,12.95,15.17,25.15,18.34,37.98,1.97,8.01,3.92,20.49,5.26,30.07,1.1,7.78,10.37,13.7,21.46,13.7h.4c.11,0,.22-.02.34-.02.11,0,.22.02.34.02h.4c11.09,0,20.37-5.92,21.46-13.7,1.35-9.58,3.29-22.06,5.26-30.07,3.17-12.83,12.62-25.03,18.34-37.98.95-2.15,2.91-5.12,9.4-6.53,0-2.26-110.4-2.26-110.4,0Z"/>
            <path class="st106" d="M30.68,7.46c6.38,1.41,8.3,4.37,9.23,6.53,5.62,12.95,14.9,25.15,18.01,37.98,1.94,8.01,3.84,20.49,5.17,30.07,1.08,7.78,10.18,13.7,21.07,13.7h.39c.11,0,.22-.02.33-.02.11,0,.22.02.33.02h.39c10.89,0,20-5.92,21.07-13.7,1.32-9.58,3.23-22.06,5.17-30.07,3.11-12.83,12.39-25.03,18.01-37.98.93-2.15,2.86-5.12,9.23-6.53,0-2.26-108.41-2.26-108.41,0Z"/>
            <path class="st58" d="M31.68,7.46c6.26,1.41,8.15,4.37,9.06,6.53,5.51,12.95,14.63,25.15,17.68,37.98,1.9,8.01,3.77,20.49,5.07,30.07,1.06,7.78,10,13.7,20.69,13.7h.38c.11,0,.21-.02.32-.02.11,0,.21.02.32.02h.38c10.69,0,19.63-5.92,20.69-13.7,1.3-9.58,3.17-22.06,5.07-30.07,3.05-12.83,12.17-25.03,17.68-37.98.92-2.15,2.8-5.12,9.06-6.53,0-2.26-106.42-2.26-106.42,0Z"/>
            <path class="st91" d="M32.67,7.46c6.14,1.41,8,4.37,8.9,6.53,5.41,12.95,14.35,25.15,17.35,37.98,1.86,8.01,3.7,20.49,4.98,30.07,1.04,7.78,9.81,13.7,20.3,13.7h.38c.11,0,.21-.02.32-.02.11,0,.21.02.32.02h.37c10.49,0,19.27-5.92,20.3-13.7,1.28-9.58,3.12-22.06,4.98-30.07,2.99-12.83,11.94-25.03,17.35-37.98.9-2.15,2.75-5.12,8.9-6.53,0-2.26-104.44-2.26-104.44,0Z"/>
            <path class="st97" d="M33.67,7.46c6.03,1.41,7.84,4.37,8.73,6.53,5.31,12.95,14.08,25.15,17.02,37.98,1.83,8.01,3.63,20.49,4.88,30.07,1.02,7.78,9.62,13.7,19.91,13.7h.37c.11,0,.21-.02.31-.02.11,0,.21.02.31.02h.37c10.29,0,18.9-5.92,19.91-13.7,1.25-9.58,3.06-22.06,4.88-30.07,2.94-12.83,11.71-25.03,17.02-37.98.88-2.15,2.7-5.12,8.73-6.53,0-2.26-102.45-2.26-102.45,0Z"/>
            <path class="st39" d="M34.66,7.46c5.91,1.41,7.69,4.37,8.56,6.53,5.2,12.95,13.81,25.15,16.69,37.98,1.79,8.01,3.56,20.49,4.79,30.07,1,7.78,9.44,13.7,19.53,13.7h.36c.1,0,.2-.02.31-.02.1,0,.2.02.31.02h.36c10.09,0,18.53-5.92,19.53-13.7,1.23-9.58,3-22.06,4.79-30.07,2.88-12.83,11.48-25.03,16.69-37.98.86-2.15,2.65-5.12,8.56-6.53,0-2.26-100.46-2.26-100.46,0Z"/>
            <path class="st85" d="M35.65,7.46c5.79,1.41,7.54,4.37,8.39,6.53,5.1,12.95,13.53,25.15,16.36,37.98,1.76,8.01,3.49,20.49,4.69,30.07.98,7.78,9.25,13.7,19.14,13.7h.35c.1,0,.2-.02.3-.02.1,0,.2.02.3.02h.35c9.89,0,18.16-5.92,19.14-13.7,1.2-9.58,2.94-22.06,4.69-30.07,2.82-12.83,11.26-25.03,16.36-37.98.85-2.15,2.59-5.12,8.39-6.53,0-2.26-98.47-2.26-98.47,0Z"/>
            <path class="st59" d="M36.65,7.46c5.68,1.41,7.39,4.37,8.22,6.53,5,12.95,13.26,25.15,16.03,37.98,1.72,8.01,3.42,20.49,4.6,30.07.96,7.78,9.06,13.7,18.75,13.7h.35c.1,0,.19-.02.29-.02.1,0,.19.02.29.02h.35c9.69,0,17.8-5.92,18.75-13.7,1.18-9.58,2.88-22.06,4.6-30.07,2.77-12.83,11.03-25.03,16.03-37.98.83-2.15,2.54-5.12,8.22-6.53,0-2.26-96.48-2.26-96.48,0Z"/>
            <path class="st71" d="M37.64,7.46c5.56,1.41,7.24,4.37,8.05,6.53,4.89,12.95,12.99,25.15,15.7,37.98,1.69,8.01,3.35,20.49,4.51,30.07.94,7.78,8.88,13.7,18.37,13.7h.34c.1,0,.19-.02.29-.02.1,0,.19.02.29.02h.34c9.49,0,17.43-5.92,18.37-13.7,1.15-9.58,2.82-22.06,4.51-30.07,2.71-12.83,10.8-25.03,15.7-37.98.81-2.15,2.49-5.12,8.05-6.53,0-2.26-94.49-2.26-94.49,0Z"/>
            <path class="st104" d="M38.64,7.46c5.44,1.41,7.08,4.37,7.88,6.53,4.79,12.95,12.71,25.15,15.37,37.98,1.65,8.01,3.28,20.49,4.41,30.07.92,7.78,8.69,13.7,17.98,13.7h.33c.1,0,.19-.02.28-.02.1,0,.19.02.28.02h.33c9.29,0,17.06-5.92,17.98-13.7,1.13-9.58,2.76-22.06,4.41-30.07,2.65-12.83,10.57-25.03,15.37-37.98.8-2.15,2.44-5.12,7.88-6.53,0-2.26-92.5-2.26-92.5,0Z"/>
          </g>
          <path class="st33" d="M15.77,7.46c8.13,1.41,10.58,4.37,11.77,6.53,7.16,12.95,19,25.15,22.97,37.98,2.47,8.01,4.9,20.49,6.59,30.07,1.37,7.78,12.99,13.7,26.87,13.7h.5c.14,0,.28-.02.42-.02.14,0,.28.02.42.02h.5c13.89,0,25.5-5.92,26.87-13.7,1.69-9.58,4.12-22.06,6.59-30.07,3.96-12.83,15.8-25.03,22.97-37.98,1.19-2.15,3.64-5.12,11.77-6.53,0-2.26-138.24-2.26-138.24,0Z"/>
          <path class="st57" d="M38.64,7.46c5.44,1.41,7.08,4.37,7.88,6.53,4.79,12.95,12.71,25.15,15.37,37.98,1.65,8.01,3.28,20.49,4.41,30.07.92,7.78,8.69,13.7,17.98,13.7h.33c.1,0,.19-.02.28-.02.1,0,.19.02.28.02h.33c9.29,0,17.06-5.92,17.98-13.7,1.13-9.58,2.76-22.06,4.41-30.07,2.65-12.83,10.57-25.03,15.37-37.98.8-2.15,2.44-5.12,7.88-6.53,0-2.26-92.5-2.26-92.5,0Z"/>
          <path class="st11" d="M23.29,7.46c7.25,1.41,9.43,4.37,10.49,6.53,6.38,12.95,16.93,25.15,20.47,37.98,2.2,8.01,4.37,20.49,5.87,30.07,1.22,7.78,11.57,13.7,23.95,13.7h.44c.13,0,.25-.02.38-.02.13,0,.25.02.38.02h.44c12.38,0,22.73-5.92,23.95-13.7,1.5-9.58,3.67-22.06,5.87-30.07,3.53-12.83,14.08-25.03,20.47-37.98,1.06-2.15,3.25-5.12,10.49-6.53,0-2.26-123.2-2.26-123.2,0Z"/>
        </g>
        <g>
          <g class="st101">
            <path class="st78" d="M100.78,81.67c-5.25,12.13-16.62,16.08-25.4,8.82-8.78-7.26-11.64-22.97-6.39-35.1,5.25-12.13,16.62-16.08,25.4-8.83,8.78,7.26,11.64,22.97,6.39,35.1Z"/>
            <path class="st46" d="M100.65,81.48c-5.2,12.06-16.48,15.99-25.18,8.77-8.7-7.21-11.53-22.84-6.33-34.9,5.2-12.06,16.48-15.99,25.18-8.78,8.7,7.21,11.53,22.84,6.33,34.9Z"/>
            <path class="st28" d="M100.53,81.28c-5.16,11.99-16.33,15.9-24.95,8.72-8.62-7.17-11.43-22.71-6.27-34.7,5.16-11.99,16.33-15.9,24.95-8.73,8.62,7.17,11.43,22.71,6.27,34.7Z"/>
            <path class="st24" d="M100.4,81.09c-5.11,11.92-16.18,15.81-24.73,8.67-8.55-7.13-11.33-22.58-6.22-34.5,5.11-11.92,16.18-15.81,24.73-8.68,8.55,7.13,11.33,22.58,6.22,34.5Z"/>
            <path class="st89" d="M100.28,80.89c-5.07,11.85-16.04,15.72-24.51,8.62-8.47-7.09-11.23-22.45-6.16-34.3,5.07-11.86,16.04-15.72,24.51-8.63,8.47,7.09,11.23,22.45,6.16,34.3Z"/>
            <path class="st95" d="M100.15,80.7c-5.02,11.79-15.89,15.62-24.28,8.57-8.39-7.05-11.13-22.32-6.11-34.11,5.02-11.79,15.89-15.63,24.28-8.58,8.39,7.05,11.12,22.32,6.11,34.11Z"/>
            <path class="st3" d="M100.02,80.5c-4.97,11.72-15.75,15.53-24.06,8.52-8.31-7.01-11.02-22.19-6.05-33.91,4.97-11.72,15.75-15.53,24.06-8.53,8.31,7.01,11.02,22.19,6.05,33.91Z"/>
            <path class="st22" d="M99.9,80.31c-4.93,11.65-15.6,15.44-23.84,8.47-8.24-6.97-10.92-22.06-5.99-33.71,4.93-11.65,15.6-15.44,23.84-8.47,8.24,6.97,10.92,22.06,5.99,33.71Z"/>
            <path class="st53" d="M99.77,80.11c-4.88,11.58-15.45,15.35-23.62,8.42-8.16-6.93-10.82-21.93-5.94-33.51,4.88-11.58,15.45-15.35,23.62-8.42,8.16,6.93,10.82,21.93,5.94,33.51Z"/>
            <path class="st82" d="M99.64,79.92c-4.84,11.51-15.31,15.26-23.39,8.37-8.08-6.89-10.72-21.8-5.88-33.31,4.84-11.51,15.31-15.26,23.39-8.37,8.08,6.89,10.72,21.8,5.88,33.31Z"/>
            <path class="st44" d="M99.52,79.72c-4.79,11.44-15.16,15.17-23.17,8.32-8.01-6.84-10.61-21.67-5.83-33.11,4.79-11.44,15.16-15.17,23.17-8.32,8.01,6.84,10.61,21.67,5.82,33.11Z"/>
            <path class="st41" d="M99.39,79.52c-4.74,11.37-15.02,15.08-22.95,8.27-7.93-6.8-10.51-21.54-5.77-32.91,4.74-11.37,15.02-15.08,22.95-8.27,7.93,6.8,10.51,21.54,5.77,32.91Z"/>
            <path class="st36" d="M99.27,79.33c-4.7,11.3-14.87,14.99-22.72,8.22-7.85-6.76-10.41-21.41-5.71-32.71,4.7-11.3,14.87-14.99,22.72-8.22,7.85,6.76,10.41,21.41,5.71,32.71Z"/>
            <path class="st6" d="M99.14,79.13c-4.65,11.24-14.72,14.89-22.5,8.17-7.78-6.72-10.31-21.28-5.66-32.51,4.65-11.24,14.72-14.89,22.5-8.17,7.78,6.72,10.31,21.28,5.66,32.51Z"/>
            <path class="st52" d="M99.01,78.94c-4.61,11.17-14.58,14.8-22.28,8.12-7.7-6.68-10.21-21.15-5.6-32.31,4.61-11.17,14.58-14.8,22.28-8.12,7.7,6.68,10.21,21.15,5.6,32.31Z"/>
            <path class="st0" d="M98.89,78.74c-4.56,11.1-14.43,14.71-22.05,8.07-7.62-6.64-10.1-21.02-5.55-32.11,4.56-11.1,14.43-14.71,22.06-8.07,7.62,6.64,10.1,21.02,5.54,32.11Z"/>
            <path class="st61" d="M98.76,78.55c-4.51,11.03-14.29,14.62-21.83,8.02-7.54-6.6-10-20.89-5.49-31.91,4.51-11.03,14.29-14.62,21.83-8.02,7.54,6.6,10,20.89,5.49,31.91Z"/>
            <path class="st30" d="M98.63,78.35c-4.47,10.96-14.14,14.53-21.61,7.97-7.47-6.56-9.9-20.75-5.43-31.71,4.47-10.96,14.14-14.53,21.61-7.97,7.47,6.56,9.9,20.75,5.43,31.71Z"/>
            <path class="st67" d="M98.51,78.16c-4.42,10.89-14,14.44-21.39,7.92-7.39-6.52-9.8-20.62-5.38-31.52,4.42-10.89,14-14.44,21.39-7.92,7.39,6.51,9.8,20.62,5.38,31.52Z"/>
            <path class="st17" d="M98.38,77.96c-4.37,10.82-13.85,14.35-21.16,7.87-7.31-6.47-9.7-20.49-5.32-31.32,4.37-10.82,13.85-14.35,21.16-7.87,7.31,6.47,9.7,20.49,5.32,31.32Z"/>
            <path class="st81" d="M98.26,77.77c-4.33,10.75-13.7,14.26-20.94,7.82-7.24-6.43-9.59-20.36-5.27-31.12,4.33-10.75,13.7-14.26,20.94-7.82,7.24,6.43,9.59,20.36,5.26,31.12Z"/>
            <path class="st15" d="M98.13,77.57c-4.28,10.68-13.56,14.16-20.72,7.77-7.16-6.39-9.49-20.23-5.21-30.92,4.28-10.68,13.56-14.16,20.72-7.77,7.16,6.39,9.49,20.23,5.21,30.92Z"/>
            <path class="st74" d="M98,77.38c-4.24,10.62-13.41,14.07-20.49,7.72-7.08-6.35-9.39-20.1-5.15-30.72,4.24-10.62,13.41-14.07,20.5-7.72,7.08,6.35,9.39,20.1,5.15,30.72Z"/>
            <path class="st102" d="M97.88,77.18c-4.19,10.55-13.27,13.98-20.27,7.67-7.01-6.31-9.29-19.97-5.1-30.52,4.19-10.55,13.27-13.98,20.27-7.67,7,6.31,9.29,19.97,5.1,30.52Z"/>
          </g>
          <g>
            <path class="st69" d="M99.95,65.19c0,12.29-6.62,22.25-14.78,22.25s-14.78-9.96-14.78-22.25,6.62-22.25,14.78-22.25,14.78,9.96,14.78,22.25Z"/>
            <path class="st34" d="M102.45,65.19c0,14.37-7.74,26.02-17.28,26.02s-17.28-11.65-17.28-26.02,7.74-26.02,17.28-26.02,17.28,11.65,17.28,26.02Z"/>
            <path class="st13" d="M97.8,61.78c0,11.79-6.35,21.35-14.18,21.35s-14.18-9.56-14.18-21.35,6.35-21.35,14.18-21.35,14.18,9.56,14.18,21.35Z"/>
            <path class="st12" d="M79.16,84.98c-1.96-5.52,1.06-13.71,6.76-18.3,5.69-4.59,11.9-3.84,13.86,1.68,1.96,5.52-1.06,13.71-6.76,18.3s-11.9,3.84-13.86-1.68Z"/>
          </g>
          <g class="st111">
            <g>
              <path class="st10" d="M112.76,62.52c0,23.74-12.78,42.99-28.55,42.99s-28.55-19.24-28.55-42.99,12.78-42.98,28.55-42.98,28.55,19.24,28.55,42.98Z"/>
              <ellipse class="st77" cx="92.86" cy="65.19" rx="13.01" ry="19.59"/>
              <ellipse class="st76" cx="78.11" cy="76.06" rx="17.93" ry="26.99"/>
              <path class="st75" d="M102.88,50.11c0,19.15-10.31,34.67-23.03,34.67s-23.03-15.52-23.03-34.67,10.31-34.67,23.03-34.67,23.03,15.52,23.03,34.67Z"/>
            </g>
          </g>
        </g>
      </g>
    </g>
  </g>
</svg>